Coordinates
version=1
nRows=32
nColumns=12
inDegrees=yes

Units are S.I. units (second, meters, Newtons, ...)
Angles are in degrees

endheader
time	SC_y	SC_z	SC_x	AC_y	AC_z	AC_x	GH_y	GH_z	GH_yy	EL_x	PS_y
       0.0              -36.48          30.27          47.07          46.76         -18.24          9.627          100.9          1.402          44.95          41.04          62.75
   0.04317              -36.48          30.27          47.07          46.76         -18.24          9.623          100.9          1.403          44.96          41.04          62.76
   0.08633              -36.48          30.27          47.07          46.76         -18.23          9.619          100.9          1.403          44.97          41.04          62.77
    0.1295              -36.48          30.26          47.07          46.76         -18.23          9.615          100.9          1.404          44.98          41.04          62.78
    0.1727              -36.48          30.26          47.07          46.76         -18.23          9.611          100.9          1.404          44.99          41.04           62.8
    0.2158              -36.48          30.26          47.07          46.76         -18.22          9.606          100.9          1.405          45.01          41.04          62.81
     0.259              -36.49          30.26          47.06          46.76         -18.22          9.601          100.9          1.405          45.02          41.04          62.83
    0.3022              -36.49          30.25          47.06          46.76         -18.22          9.596          100.9          1.406          45.04          41.04          62.84
    0.3453              -36.49          30.25          47.06          46.77         -18.21           9.59          100.9          1.406          45.05          41.04          62.86
    0.3885              -36.49          30.25          47.06          46.77         -18.21          9.584          100.9          1.407          45.07          41.04          62.88
    0.4317              -36.49          30.24          47.06          46.77          -18.2          9.577          100.9          1.407          45.09          41.05           62.9
    0.4748              -36.49          30.24          47.05          46.77         -18.19           9.57          100.9          1.408          45.11          41.05          62.92
     0.518              -36.49          30.24          47.05          46.77         -18.19          9.563          100.9          1.409          45.13          41.05          62.95
    0.5612              -36.49          30.23          47.05          46.77         -18.18          9.554          100.9           1.41          45.16          41.05          62.97
    0.6043               -36.5          30.23          47.05          46.77         -18.17          9.546          100.9          1.411          45.18          41.05           63.0
    0.6475               -36.5          30.22          47.04          46.77         -18.17          9.536          100.9          1.412          45.21          41.05          63.03
    0.6907               -36.5          30.22          47.04          46.77         -18.16          9.525          100.9          1.413          45.24          41.06          63.06
    0.7338               -36.5          30.21          47.04          46.77         -18.15          9.514          100.9          1.414          45.27          41.06           63.1
     0.777              -36.51           30.2          47.03          46.77         -18.14          9.501          100.9          1.415          45.31          41.06          63.14
    0.8202              -36.51           30.2          47.03          46.77         -18.13          9.488          100.9          1.417          45.35          41.06          63.18
    0.8633              -36.51          30.19          47.02          46.77         -18.11          9.473          100.8          1.418          45.39          41.07          63.23
    0.9065              -36.51          30.18          47.02          46.77          -18.1          9.456          100.8           1.42          45.44          41.07          63.28
    0.9497              -36.52          30.17          47.01          46.77         -18.08          9.438          100.8          1.422           45.5          41.07          63.34
    0.9928              -36.52          30.16           47.0          46.77         -18.07          9.418          100.8          1.424          45.56          41.08           63.4
     1.036              -36.53          30.15           47.0          46.77         -18.05          9.395          100.8          1.427          45.62          41.08          63.47
     1.079              -36.53          30.13          46.99          46.77         -18.03           9.37          100.8          1.429          45.69          41.09          63.55
     1.122              -36.54          30.12          46.98          46.77          -18.0          9.342          100.8          1.432          45.78          41.09          63.64
     1.166              -36.54           30.1          46.97          46.77         -17.98           9.31          100.8          1.435          45.87           41.1          63.74
     1.209              -36.55          30.08          46.95          46.77         -17.95          9.275          100.8          1.439          45.97          41.11          63.85
     1.252              -36.56          30.06          46.94          46.77         -17.91          9.234          100.7          1.443          46.09          41.12          63.97
     1.295              -36.57          30.04          46.92          46.77         -17.88          9.188          100.7          1.448          46.23          41.13          64.12
     1.338              -36.58          30.01          46.91          46.77         -17.83          9.135          100.7          1.454          46.38          41.14          64.28
